<?xml version="1.0" standalone="no"?><!DOCTYPE svg PUBLIC "-//W3C//DTD SVG 1.1//EN" "http://www.w3.org/Graphics/SVG/1.1/DTD/svg11.dtd"><svg t="1625503743089" class="icon" viewBox="0 0 1024 1024" version="1.1" xmlns="http://www.w3.org/2000/svg" p-id="5211" xmlns:xlink="http://www.w3.org/1999/xlink" width="200" height="200"><defs><style type="text/css"></style></defs><path d="M170.951111 499.38963m-42.666667 0a42.666667 42.666667 0 1 0 85.333334 0 42.666667 42.666667 0 1 0-85.333334 0Z" p-id="5212" fill="#ffffff"></path><path d="M170.951111 570.500741c-39.253333 0-71.111111-31.857778-71.111111-71.111111s31.857778-71.111111 71.111111-71.111111 71.111111 31.857778 71.111111 71.111111-31.857778 71.111111-71.111111 71.111111z m0-85.333334c-7.86963 0-14.222222 6.352593-14.222222 14.222223s6.352593 14.222222 14.222222 14.222222 14.222222-6.352593 14.222222-14.222222-6.352593-14.222222-14.222222-14.222223z" p-id="5213" fill="#ffffff"></path><path d="M500.906667 499.38963m-42.666667 0a42.666667 42.666667 0 1 0 85.333333 0 42.666667 42.666667 0 1 0-85.333333 0Z" p-id="5214" fill="#ffffff"></path><path d="M500.906667 570.500741c-39.253333 0-71.111111-31.857778-71.111111-71.111111s31.857778-71.111111 71.111111-71.111111 71.111111 31.857778 71.111111 71.111111-31.857778 71.111111-71.111111 71.111111z m0-85.333334c-7.86963 0-14.222222 6.352593-14.222223 14.222223s6.352593 14.222222 14.222223 14.222222 14.222222-6.352593 14.222222-14.222222-6.352593-14.222222-14.222222-14.222223z" p-id="5215" fill="#ffffff"></path><path d="M853.617778 499.38963m-42.666667 0a42.666667 42.666667 0 1 0 85.333333 0 42.666667 42.666667 0 1 0-85.333333 0Z" p-id="5216" fill="#ffffff"></path><path d="M853.617778 570.500741c-39.253333 0-71.111111-31.857778-71.111111-71.111111s31.857778-71.111111 71.111111-71.111111 71.111111 31.857778 71.111111 71.111111-31.857778 71.111111-71.111111 71.111111z m0-85.333334c-7.86963 0-14.222222 6.352593-14.222222 14.222223s6.352593 14.222222 14.222222 14.222222 14.222222-6.352593 14.222222-14.222222-6.352593-14.222222-14.222222-14.222223z" p-id="5217" fill="#ffffff"></path></svg>