<?xml version="1.0" standalone="no"?><!DOCTYPE svg PUBLIC "-//W3C//DTD SVG 1.1//EN" "http://www.w3.org/Graphics/SVG/1.1/DTD/svg11.dtd"><svg t="1625507596857" class="icon" viewBox="0 0 1024 1024" version="1.1" xmlns="http://www.w3.org/2000/svg" p-id="9698" xmlns:xlink="http://www.w3.org/1999/xlink" width="200" height="200"><defs><style type="text/css"></style></defs><path d="M512 1012.363636C235.659636 1012.363636 11.636364 788.340364 11.636364 512S235.659636 11.636364 512 11.636364 1012.363636 235.659636 1012.363636 512 788.340364 1012.363636 512 1012.363636z m0-69.818181c237.777455 0 430.545455-192.768 430.545455-430.545455S749.777455 81.454545 512 81.454545 81.454545 274.222545 81.454545 512 274.222545 942.545455 512 942.545455z m172.520727-498.734546h-0.023272c17.105455 0 32 15.546182 32 32.651636v3.607273c0 17.198545-14.894545 30.114909-32 30.114909h-139.799273v58.181818h110.708363c17.477818 0.372364 31.581091 14.429091 32 31.90691v3.653818c0 17.105455-14.894545 29.905455-32 29.905454h-110.708363v135.610182a32.744727 32.744727 0 0 1-65.466182 0v-135.656727h-111.36c-17.082182 0-30.464-12.8-30.464-29.858909v-3.653818c0-17.105455 13.381818-31.906909 30.464-31.90691h111.429818v-58.181818h-140.404363a30.952727 30.952727 0 0 1-31.162182-30.72v-3.002182c0.069818-17.221818 13.963636-31.185455 31.185454-31.371636h151.365818c-0.674909 0-1.28-0.884364-1.954909-1.559273l-107.426909-107.357091a32.861091 32.861091 0 0 1 0.116364-46.42909 32.861091 32.861091 0 0 1 46.429091-0.186182l84.48 84.363636 83.968-84.107636a32.651636 32.651636 0 0 1 46.266182-0.069818c12.846545 12.730182 12.730182 33.28-0.069819 46.08l-107.450181 107.10109c-0.651636 0.605091-1.28 0.884364-1.931637 0.884364h151.808z" p-id="9699" fill="#ffffff"></path></svg>