<?xml version="1.0" standalone="no"?><!DOCTYPE svg PUBLIC "-//W3C//DTD SVG 1.1//EN" "http://www.w3.org/Graphics/SVG/1.1/DTD/svg11.dtd"><svg t="1624785104986" class="icon" viewBox="0 0 1024 1024" version="1.1" xmlns="http://www.w3.org/2000/svg" p-id="855" xmlns:xlink="http://www.w3.org/1999/xlink" width="200" height="200"><defs><style type="text/css"></style></defs><path d="M594.432 257.173333l246.122667 192.384-246.122667 202.261334v-99.242667h-192c-71.978667 0-138.474667 23.893333-192 64.149333v-64.149333c0-105.877333 86.122667-192 192-192h192V257.173333M573.290667 170.666667c-22.08 0-42.858667 17.408-42.858667 42.752v83.157333h-128c-141.376 0-256 114.624-256 256v246.122667c0 8.554667 11.754667 10.389333 14.528 2.282666 34.773333-101.696 126.272-184.426667 241.472-184.426666h128v80.384c0 25.408 20.842667 42.752 42.88 42.752 9.216 0 18.666667-3.029333 26.88-9.792L901.76 482.112a42.666667 42.666667 0 0 0-0.810667-66.581333L599.381333 179.797333A42.026667 42.026667 0 0 0 573.290667 170.666667z" fill="#ffffff" p-id="856"></path></svg>